<?xml version="1.0" encoding="UTF-8" standalone="no"?>
<svg
   width="16"
   height="16"
   fill="black"
   class="bi bi-box-seam"
   viewBox="0 0 16 16"
   version="1.1"
   id="svg1"
   sodipodi:docname="favicon.svg"
   inkscape:version="1.4.2 (ebf0e94, 2025-05-08)"
   xmlns:inkscape="http://www.inkscape.org/namespaces/inkscape"
   xmlns:sodipodi="http://sodipodi.sourceforge.net/DTD/sodipodi-0.dtd"
   xmlns="http://www.w3.org/2000/svg"
   xmlns:svg="http://www.w3.org/2000/svg">
  <defs
     id="defs1" />
  <sodipodi:namedview
     id="namedview1"
     pagecolor="#505050"
     bordercolor="#eeeeee"
     borderopacity="1"
     inkscape:showpageshadow="0"
     inkscape:pageopacity="0"
     inkscape:pagecheckerboard="0"
     inkscape:deskcolor="#505050"
     inkscape:zoom="30.729205"
     inkscape:cx="7.9891425"
     inkscape:cy="8.7701585"
     inkscape:window-width="1366"
     inkscape:window-height="740"
     inkscape:window-x="0"
     inkscape:window-y="0"
     inkscape:window-maximized="1"
     inkscape:current-layer="svg1" />
  <path
     style="fill:#000000;stroke-width:0.0301318"
     d="M 4.2033898,14.504522 0.49717514,13.020997 0.31371037,12.838182 C -0.01433322,12.5113 0.01506591,13.002412 0.01506591,7.8493409 c 0,-4.1898706 0.0033262,-4.480656 0.05227605,-4.5701291 C 0.09609378,3.2266576 0.15772292,3.1565258 0.20429561,3.123363 0.25086828,3.0902002 1.9425983,2.4009958 3.9636957,1.5917973 L 7.6384181,0.12052731 H 8 8.3615819 L 12.036304,1.5917973 c 2.021098,0.8091985 3.712828,1.4984029 3.7594,1.5315657 0.04657,0.033163 0.108202,0.1032946 0.136954,0.1558488 0.04895,0.089477 0.05228,0.3810259 0.05228,4.585195 0,4.2221572 -0.0032,4.4975852 -0.05325,4.6229632 -0.07381,0.184786 -0.223067,0.371392 -0.383661,0.479655 -0.172994,0.11662 -7.3566476,2.991101 -7.5178912,3.008223 -0.1040108,0.01104 -0.628404,-0.190495 -3.826742,-1.470726 z M 7.4803378,6.8208178 C 7.4593757,6.800195 1.0386303,4.2335217 1.008002,4.2335217 c -0.00751,0 -0.0136517,1.7871656 -0.0136517,3.971479 V 12.17648 l 3.2467043,1.298514 3.2467043,1.298513 0.00764,-3.965173 C 7.499608,8.627489 7.4928283,6.8331067 7.4803378,6.8208178 Z M 11.849341,13.438203 15.00565,12.176446 V 8.2029532 c 0,-3.770623 -0.0027,-3.9726306 -0.05273,-3.9566083 -0.029,0.00929 -1.490019,0.5919017 -3.246704,1.2947004 l -3.1939739,1.2778163 -0.00764,3.9808504 -0.00764,3.98085 0.098039,-0.0403 c 0.053922,-0.02217 1.5183779,-0.608092 3.2543479,-1.302058 z M 11.088512,4.7472452 c 1.665537,-0.6664033 3.03934,-1.222312 3.052896,-1.2353528 0.01356,-0.013041 -0.518592,-0.2411606 -1.182552,-0.5069327 l -1.2072,-0.483222 -3.0770824,1.2310319 C 6.9821785,4.4298371 5.5915812,4.9897118 5.5843577,4.9969356 5.5632401,5.0180532 7.9652761,5.9773297 8.0150659,5.9676628 8.0399247,5.9628363 9.4229755,5.4136485 11.088512,4.7472452 Z M 7.3521657,3.2406111 C 9.0177024,2.5736886 10.392444,2.0206172 10.407145,2.0115634 10.421848,2.0025096 9.9135461,1.786882 9.2775861,1.5323909 8.4584835,1.2046119 8.0860363,1.0696749 8.0003839,1.0696628 7.8305519,1.0696389 1.8057598,3.4778646 1.8716588,3.5194326 1.9919584,3.5953157 4.211203,4.4699577 4.2636535,4.4621583 4.2967985,4.45723 5.686629,3.9075336 7.3521657,3.2406111 Z"
     id="path6"
     inkscape:label="border" />
  <g
     inkscape:groupmode="layer"
     id="layer1"
     inkscape:label="faces"
     style="display:inline">
    <path
       style="display:inline;fill:#ffffff;stroke-width:0.0301318"
       d="M 3.0621632,3.9714459 1.8908047,3.5012516 4.8851387,2.3019391 C 7.083172,1.4215667 7.9115251,1.1026322 8,1.1026477 8.0851049,1.1026626 8.4472166,1.2337891 9.2321154,1.5488167 9.843489,1.7941981 10.331625,2.0024032 10.316861,2.0114947 10.286002,2.0304987 4.2523053,4.4451673 4.2409885,4.4430424 4.2368817,4.442271 3.7064103,4.2300526 3.0621632,3.9714459 Z"
       id="path5" />
    <path
       style="display:inline;fill:#ffffff;stroke-width:0.0301318"
       d="M 6.8204827,5.4732013 5.6417914,5.001859 8.6740695,3.7890651 C 10.341822,3.1220284 11.726829,2.5762712 11.751863,2.5762712 c 0.02503,0 0.565649,0.2081411 1.201368,0.4625357 l 1.155853,0.4625358 -2.918949,1.1677915 C 9.5847132,5.3114196 8.2099836,5.8611399 8.1351802,5.8907348 L 7.999174,5.9445436 Z"
       id="path4" />
    <path
       style="fill:#ffffff;stroke-width:0.0301318"
       d="m 8.5286082,10.779661 0.0013,-3.9397363 3.2228048,-1.2850588 3.222804,-1.2850588 v 3.9411642 3.9411647 l -3.209052,1.28363 c -1.764979,0.705997 -3.2158268,1.283631 -3.224106,1.283631 -0.00828,0 -0.014468,-1.772881 -0.013752,-3.939736 z"
       id="path3" />
    <path
       style="display:inline;fill:#ffffff;stroke-width:0.0301318"
       d="M 4.2259887,13.434369 1.0244821,12.152136 V 8.2074902 4.2628447 l 0.097928,0.040256 c 0.053861,0.022141 1.5045148,0.6019835 3.2236758,1.28854 L 7.4718333,6.8399251 7.472263,10.779661 C 7.4724992,12.946516 7.462523,14.718769 7.450094,14.718 7.437665,14.717231 5.9868171,14.139597 4.2259887,13.434369 Z"
       id="path2" />
  </g>
</svg>
