<?xml version="1.0" encoding="UTF-8" standalone="no"?>
<!-- Created with Inkscape (http://www.inkscape.org/) -->

<svg
   width="512"
   height="512"
   viewBox="0 0 512 512"
   version="1.1"
   id="svg1"
   xml:space="preserve"
   inkscape:version="1.4.2 (ebf0e94, 2025-05-08)"
   sodipodi:docname="favicon.svg"
   xmlns:inkscape="http://www.inkscape.org/namespaces/inkscape"
   xmlns:sodipodi="http://sodipodi.sourceforge.net/DTD/sodipodi-0.dtd"
   xmlns="http://www.w3.org/2000/svg"
   xmlns:svg="http://www.w3.org/2000/svg"><sodipodi:namedview
     id="namedview1"
     pagecolor="#505050"
     bordercolor="#eeeeee"
     borderopacity="1"
     inkscape:showpageshadow="0"
     inkscape:pageopacity="0"
     inkscape:pagecheckerboard="0"
     inkscape:deskcolor="#505050"
     inkscape:document-units="px"
     inkscape:zoom="0.29838637"
     inkscape:cx="-6.7027191"
     inkscape:cy="464.1633"
     inkscape:window-width="1366"
     inkscape:window-height="740"
     inkscape:window-x="0"
     inkscape:window-y="0"
     inkscape:window-maximized="1"
     inkscape:current-layer="svg1" /><defs
     id="defs1" /><path
     style="display:inline;fill:#000000;stroke:#ffffff;stroke-width:40;stroke-linecap:round;stroke-linejoin:round;stroke-dasharray:none;paint-order:stroke fill markers"
     d="m 217.30606,453.42048 c -2.58686,-1.35264 -6.39707,-5.59652 -8.46714,-9.43087 -3.4499,-6.39022 -3.87699,-10.4078 -5.12227,-48.18225 -0.94566,-28.68606 -0.80428,-41.54087 0.46526,-42.29705 1.00311,-0.59749 6.19585,-1.99977 11.53945,-3.11619 5.34359,-1.11641 25.67953,-5.68072 45.19099,-10.14288 19.51147,-4.46215 38.46743,-8.11301 42.12436,-8.11301 5.80201,0 11.54306,3.29116 45.07105,25.83784 21.13216,14.21081 40.12053,27.03174 42.19634,28.49097 5.39748,3.79422 7.95506,10.74134 6.85761,18.62703 -1.64336,11.80813 -5.58344,14.01193 -38.22681,21.38147 -15.92742,3.59576 -40.14115,9.08098 -53.80835,12.18939 -87.87115,19.98496 -80.26387,18.70679 -87.82049,14.75555 z m -60.67548,-9.44363 c -26.70301,-17.43878 -69.153188,-46.30214 -74.292078,-50.51377 -10.90628,-8.93836 -6.1702,-11.45313 41.986978,-22.2943 14.13847,-3.18287 34.11214,-7.70499 44.38597,-10.04918 10.2738,-2.34419 18.8837,-4.06386 19.13311,-3.82146 0.24939,0.24236 1.01032,17.56172 1.69097,38.48745 1.37632,42.31415 0.68315,46.06081 -9.45695,51.11443 -7.76215,3.86852 -14.29542,3.05404 -23.448,-2.92317 z m 267.56281,-54.54946 c -4.69132,-3.01048 -26.45073,-17.57396 -48.35421,-32.36327 -36.185,-24.43224 -39.97524,-27.44144 -41.47381,-32.92728 -1.99742,-7.31191 -5.66736,-139.31692 -3.91393,-140.78037 2.53049,-2.11201 84.11686,-19.68655 91.37946,-19.68408 4.14857,0.001 10.18906,1.30209 13.42335,2.89038 11.74295,5.76675 11.58788,4.66479 14.58303,103.63854 3.66064,120.96619 3.79727,113.9595 -2.33731,119.87176 -6.6087,6.36922 -12.63518,6.20227 -23.30658,-0.64568 z M 93.477902,355.81727 c -9.19804,-1.88703 -17.99342,-6.08922 -20.51839,-9.80316 -2.39504,-3.52284 -3.15699,-15.32424 -5.24634,-81.25837 -1.34437,-42.42533 -2.4596,-85.20116 -2.47828,-95.05738 l -0.0339,-17.92044 5.82678,-5.6156 c 4.8675,-4.69113 7.05404,-5.60773 13.28159,-5.56768 6.84516,0.0441 10.95866,2.40618 50.298688,28.88399 23.56413,15.85986 44.36623,30.73185 46.22694,33.04886 3.15784,3.93231 3.5047,8.52456 5.21003,68.97633 1.00485,35.61993 1.17398,65.20504 0.37586,65.74465 -1.78913,1.20958 -75.2273,17.50266 -83.51729,18.52921 -3.298978,0.40852 -7.540518,0.42634 -9.425638,0.0397 z M 201.63512,313.55715 c -0.59315,-11.12799 -1.24898,-33.61109 -1.45739,-49.96243 l -0.37895,-29.72974 5.08376,-8.90603 c 5.6659,-9.92584 13.4005,-15.68675 25.95782,-19.33402 11.84223,-3.43956 83.06837,-19.17685 83.76309,-18.50732 0.31877,0.30722 0.82324,22.84294 1.12104,50.07941 0.52998,48.46953 0.46086,49.66606 -3.25538,56.36287 -5.72889,10.32371 -16.58945,18.39107 -29.58174,21.97373 -11.18926,3.08548 -77.0611,18.30329 -79.09463,18.27258 -0.59357,-0.01 -1.56449,-9.12103 -2.15762,-20.24905 z m -9.85249,-127.87032 c -5.05424,-3.33358 -16.90142,-11.27056 -26.32705,-17.63772 -9.42567,-6.36719 -25.66888,-17.3315 -36.09607,-24.36517 -20.70199,-13.96454 -22.51751,-15.577 -23.05857,-20.47957 -1.52802,-13.84507 1.2631,-15.70954 35.477,-23.698951 80.67098,-18.837782 140.85055,-32.024412 146.2727,-32.051512 3.33286,-0.017 8.4344,1.15318 11.33675,2.59965 11.05887,5.51152 14.06039,20.11065 14.21552,69.143113 0.0836,26.43652 -0.19204,29.28569 -2.90665,30.05132 -3.02721,0.85373 -7.62397,1.90745 -66.19328,15.17339 -17.79065,4.02959 -34.86307,7.32651 -37.93874,7.32651 -3.62828,0 -8.81924,-2.12851 -14.78161,-6.06106 z m 136.74649,-33.95868 c -0.60676,-7.51242 -1.10784,-24.89315 -1.11351,-38.62387 -0.01,-22.523123 0.32703,-25.378203 3.43813,-29.190003 4.30567,-5.27537 12.11218,-7.10049 17.8967,-4.18407 12.74912,6.42778 85.76456,56.862453 85.76456,59.241003 0,2.2618 -11.5447,5.26949 -71.97768,18.75203 -15.08105,3.36456 -28.65417,6.46534 -30.16252,6.8906 -2.29965,0.64839 -2.92055,-1.43214 -3.84568,-12.88569 z"
     id="path3"
     sodipodi:nodetypes="sssssssssssssssssssssssssssssssssscssssssssssscsssssscsssssscssssssscssssss"
     inkscape:label="Box" /></svg>
